<?xml version="1.0" encoding="UTF-8"?><!DOCTYPE svg PUBLIC "-//W3C//DTD SVG 1.1//EN" "http://www.w3.org/Graphics/SVG/1.1/DTD/svg11.dtd"><svg xmlns="http://www.w3.org/2000/svg" xmlns:xlink="http://www.w3.org/1999/xlink"><symbol id="checked" viewBox="0 0 17 17">
  <path fill-rule="evenodd" clip-rule="evenodd" d="M15.8321 2.55471L7.1555 15.5697L1.29297 9.70712L2.70718 8.29291L6.84465 12.4304L14.168 1.44531L15.8321 2.55471Z"/>
</symbol><symbol id="close-sm" viewBox="0 0 25 25">
  <path fill-rule="evenodd" clip-rule="evenodd" d="M12.5 11.7929L23.6465 0.646454L24.3536 1.35356L13.2071 12.5L24.3536 23.6465L23.6465 24.3536L12.5 13.2071L1.35359 24.3536L0.646484 23.6465L11.7929 12.5L0.646484 1.35356L1.35359 0.646454L12.5 11.7929Z"/>
</symbol><symbol id="close" viewBox="0 0 37 37">
  <path fill-rule="evenodd" clip-rule="evenodd" d="M18.5 17.7929L35.6465 0.646454L36.3536 1.35356L19.2071 18.5L36.3536 35.6465L35.6465 36.3536L18.5 19.2071L1.35359 36.3536L0.646484 35.6465L17.7929 18.5L0.646484 1.35356L1.35359 0.646454L18.5 17.7929Z"/>
</symbol><symbol id="figma" viewBox="0 0 28 40">
  <path fill-rule="evenodd" clip-rule="evenodd" d="M19.9998 0.894775H15.1051H12.8945H7.99979C6.11536 0.894775 4.30811 1.64336 2.97561 2.97586C1.64312 4.30835 0.894531 6.11561 0.894531 8.00004C0.894531 9.88447 1.64312 11.6917 2.97561 13.0242C3.34758 13.3962 3.75655 13.7227 4.19386 14C3.75655 14.2774 3.34758 14.6039 2.97561 14.9759C1.64312 16.3084 0.894531 18.1156 0.894531 20C0.894531 21.8845 1.64312 23.6917 2.97561 25.0242C3.34758 25.3962 3.75655 25.7227 4.19386 26C3.75655 26.2774 3.34758 26.6039 2.97561 26.9759C1.64312 28.3084 0.894531 30.1156 0.894531 32C0.894531 33.8845 1.64312 35.6917 2.97561 37.0242C4.30811 38.3567 6.11536 39.1053 7.99979 39.1053C9.88423 39.1053 11.6915 38.3567 13.024 37.0242C14.3565 35.6917 15.1051 33.8845 15.1051 32V27.1053V25.1504C16.4239 26.4039 18.1757 27.1053 19.9998 27.1053C21.8842 27.1053 23.6915 26.3567 25.024 25.0242C26.3565 23.6917 27.1051 21.8845 27.1051 20C27.1051 18.1156 26.3565 16.3084 25.024 14.9759C24.652 14.6039 24.243 14.2774 23.8057 14C24.243 13.7227 24.652 13.3962 25.024 13.0242C26.3565 11.6917 27.1051 9.88447 27.1051 8.00004C27.1051 6.11561 26.3565 4.30835 25.024 2.97586C23.6915 1.64336 21.8842 0.894775 19.9998 0.894775ZM15.1051 20C15.1051 21.2982 15.6208 22.5432 16.5387 23.4611C17.4566 24.3791 18.7016 24.8948 19.9998 24.8948C21.298 24.8948 22.543 24.3791 23.4609 23.4611C24.3788 22.5432 24.8945 21.2982 24.8945 20C24.8945 18.7019 24.3788 17.4569 23.4609 16.5389C22.543 15.621 21.298 15.1053 19.9998 15.1053C18.7016 15.1053 17.4566 15.621 16.5387 16.5389C15.6208 17.4569 15.1051 18.7019 15.1051 20ZM12.8945 27.1053H7.99979C6.70163 27.1053 5.45663 27.621 4.53869 28.5389C3.62075 29.4569 3.10506 30.7019 3.10506 32C3.10506 33.2982 3.62075 34.5432 4.53869 35.4611C5.45663 36.3791 6.70163 36.8948 7.99979 36.8948C9.29796 36.8948 10.543 36.3791 11.4609 35.4611C12.3788 34.5432 12.8945 33.2982 12.8945 32V27.1053ZM7.99979 24.8948H12.8945V20V15.1053H7.99979C6.70163 15.1053 5.45663 15.621 4.53869 16.5389C3.62075 17.4569 3.10506 18.7019 3.10506 20C3.10506 21.2982 3.62075 22.5432 4.53869 23.4611C5.45663 24.3791 6.70163 24.8948 7.99979 24.8948ZM19.9998 12.8948H15.1051V3.1053H19.9998C21.298 3.1053 22.543 3.621 23.4609 4.53894C24.3788 5.45688 24.8945 6.70187 24.8945 8.00004C24.8945 9.2982 24.3788 10.5432 23.4609 11.4611C22.543 12.3791 21.298 12.8948 19.9998 12.8948ZM12.8945 12.8948V3.1053H7.99979C6.70163 3.1053 5.45663 3.621 4.53869 4.53894C3.62075 5.45688 3.10506 6.70187 3.10506 8.00004C3.10506 9.2982 3.62075 10.5432 4.53869 11.4611C5.45663 12.3791 6.70163 12.8948 7.99979 12.8948H12.8945Z"/>
</symbol><symbol id="logo" viewBox="0 0 110 80">
  <path fill-rule="evenodd" clip-rule="evenodd" d="M51.9422 0.385055L52.0031 0.351141C52.3248 0.171734 52.6683 -0.0198851 53.048 0.00166415C53.2492 0.0138945 53.3843 0.148123 53.5175 0.280568L53.5176 0.280622C53.5668 0.329504 53.6157 0.378141 53.6676 0.42031C54.4836 0.935464 55.2937 1.46075 56.1006 1.98913C56.4733 2.23459 56.8473 2.47802 57.2212 2.72143L57.2227 2.72238C57.6841 3.02272 58.1455 3.32305 58.6044 3.62713C58.7482 3.72144 58.8029 3.89286 58.8365 4.05107C58.9001 4.37866 58.9021 4.71062 58.904 5.04263V5.04269C58.9053 5.27832 58.9067 5.51398 58.9301 5.74812C58.9431 5.89228 58.9472 6.03693 58.9513 6.18158V6.18168C58.9566 6.36996 58.9619 6.55824 58.987 6.74538C59.1868 8.53057 59.6963 10.2638 60.2537 11.9679C61.1359 14.6278 62.0965 17.2635 63.1549 19.8609C63.4761 20.6356 63.7983 21.4112 64.1809 22.1595C65.0475 22.1251 65.9051 22.3428 66.6932 22.6852C67.8474 23.1849 68.8856 23.9046 69.8726 24.6691C70.5169 25.1683 71.1387 25.6943 71.7606 26.2203C71.9907 26.415 72.2209 26.6096 72.4521 26.8029L72.501 26.8431C73.0592 27.3024 73.6206 27.7642 74.2479 28.1307C72.7483 29.4523 70.9838 30.4632 69.1185 31.1982C66.6847 32.1554 64.0931 32.66 61.4966 32.9504C58.5139 33.2791 55.5083 33.3311 52.5094 33.3311C48.4191 33.2937 44.3435 32.5132 40.5126 31.1114C38.857 30.4879 37.2207 29.7735 35.752 28.7873C37.924 27.1525 40.0994 25.5222 42.2749 23.892L42.2775 23.89L43.9098 22.6667C45.6048 23.4172 47.4163 23.9019 49.2556 24.1557C51.8051 24.5056 54.4311 24.3743 56.9161 23.7001C56.6149 23.6359 56.311 23.5835 56.0071 23.5312L56.007 23.5311L56.007 23.5311C55.685 23.4757 55.363 23.4202 55.0441 23.3506C54.0126 23.1413 52.9884 22.8914 51.9879 22.5658C51.0245 22.2489 50.0724 21.8691 49.2202 21.3187C48.6633 20.9529 48.1319 20.5056 47.824 19.9089C47.6085 19.5075 47.5324 19.0306 47.6448 18.5873C47.7683 17.9646 47.8753 17.3391 47.9824 16.7135L47.9824 16.7134C48.0568 16.2786 48.1313 15.8438 48.2112 15.41C48.6521 13.0127 49.0965 10.6093 49.7789 8.26484C49.8158 8.12277 49.8631 7.98349 49.9104 7.84429C49.986 7.62168 50.0616 7.39924 50.0944 7.16579C50.24 6.34833 50.391 5.53175 50.5612 4.7187L50.5693 4.6805C50.6209 4.4349 50.6728 4.1883 50.6898 3.93693L50.6902 3.92951C50.7018 3.69274 50.7153 3.41677 50.5366 3.23273C50.3854 3.11907 50.2079 3.1417 50.0296 3.16442C49.9162 3.17887 49.8025 3.19336 49.6951 3.17279C49.4417 3.02973 49.1737 2.91576 48.9057 2.80178C48.6198 2.68017 48.3338 2.55856 48.0655 2.4016L48.0475 2.38998C47.9547 2.33047 47.856 2.2671 47.8102 2.16452C47.7922 2.09401 47.8491 2.04157 47.9047 2.00984C48.0799 1.90391 48.2752 1.84042 48.4697 1.7772C48.518 1.76152 48.5662 1.74586 48.614 1.72957C48.7158 1.69734 48.8178 1.66531 48.92 1.63325L48.9221 1.63258C49.9645 1.30545 51.0185 0.974671 51.9422 0.385055ZM42.9396 34.518C43.2082 34.5785 43.4756 34.6444 43.7431 34.7103C44.1335 34.8065 44.524 34.9027 44.9183 34.9824C45.0683 35.0187 45.2203 35.0474 45.3723 35.0762L45.3724 35.0762L45.3725 35.0762C45.5526 35.1102 45.7327 35.1443 45.9094 35.1909C46.4403 35.881 47.0676 36.4931 47.7231 37.0682C48.1864 37.467 48.6739 37.8786 49.2765 38.0518C49.7228 38.1809 50.1973 38.0795 50.6162 37.9059C50.9575 37.7659 51.2819 37.5913 51.6062 37.4168L51.6062 37.4168C51.6924 37.3704 51.7785 37.3241 51.865 37.2784C52.8028 36.7905 53.9843 36.7756 54.9275 37.2581C54.9718 37.2863 55.0261 37.2929 55.0709 37.2607C56.0812 36.7332 57.3618 36.8055 58.3341 37.3846C58.4618 37.453 58.5886 37.5244 58.7155 37.5958L58.7159 37.596C59.1445 37.8373 59.5751 38.0796 60.051 38.2153C60.47 38.3386 60.9266 38.2695 61.3096 38.0711C61.8334 37.8023 62.2703 37.4009 62.6937 37.0025C63.1969 36.5239 63.6696 36.0119 64.0693 35.446C64.101 35.4024 64.1304 35.3572 64.1598 35.312C64.2109 35.2333 64.2619 35.1548 64.3251 35.0851L64.5456 35.0422L64.5458 35.0421C65.3826 34.8793 66.2206 34.7163 67.043 34.4911C67.302 35.3491 67.6291 36.1908 68.0709 36.9752C68.5382 37.8195 68.997 38.6744 69.3281 39.5809C69.5844 40.2975 69.7569 41.0801 69.5764 41.8346C69.523 42.069 69.4321 42.2924 69.3353 42.5128C69.2548 42.4451 69.1931 42.3612 69.1313 42.2772C69.0934 42.2257 69.0555 42.1741 69.0132 42.1263C68.5042 41.5062 67.9024 40.9206 67.1394 40.6174C66.7809 40.4737 66.3835 40.4222 66.0008 40.4834C66.0324 40.7391 66.1016 40.9871 66.1707 41.2351L66.1708 41.2352C66.2086 41.371 66.2465 41.5067 66.2782 41.6437C66.5493 42.6776 66.7222 43.7546 66.6003 44.8228C66.5295 45.4327 66.3606 46.0355 66.0676 46.5793C65.9243 46.844 65.7742 47.1052 65.624 47.3664C65.3667 47.8139 65.1095 48.2615 64.8865 48.7268C64.7437 49.0262 64.6474 49.3474 64.6112 49.6764C65.2684 49.7582 65.8883 49.9184 66.471 50.1572C67.3815 50.5202 68.1444 51.0164 68.7596 51.6457V49.9757H73.5583V67.5109H68.7596V65.8409C68.1444 66.4702 67.3938 66.9663 66.5079 67.3294C65.622 67.6924 64.6499 67.874 63.5918 67.874C61.9676 67.874 60.5034 67.4746 59.1991 66.6759C57.9195 65.8772 56.8982 64.788 56.1354 63.4085C55.3971 62.0289 55.028 60.4799 55.028 58.7614C55.028 58.5268 55.0349 58.2954 55.0486 58.0671C55.0356 58.066 55.0174 58.0642 54.9993 58.0624L54.9481 58.0573C54.933 57.9494 54.8651 57.8673 54.7979 57.7859C54.7775 57.7612 54.7572 57.7366 54.7384 57.7113C53.9171 56.6652 53.0438 55.6516 52.0496 54.7597C51.955 54.6753 51.8653 54.5868 51.7798 54.4949L44.8414 63.3722H52.9623V67.5109H37.9018V64.788L46.2441 54.1144H38.5662V49.9757H45.4115C45.4012 49.7635 45.3796 49.5524 45.3314 49.3442C45.2438 48.9589 45.0587 48.6068 44.8757 48.2587L44.8376 48.1861C44.6809 47.8998 44.5187 47.6164 44.3565 47.333L44.3564 47.3328C44.2223 47.0985 44.0882 46.8642 43.9572 46.6283C43.6364 46.0474 43.4562 45.3983 43.3904 44.7422C43.2712 43.5713 43.5055 42.3999 43.8183 41.2749C43.8349 41.2089 43.8528 41.1432 43.8707 41.0774C43.9244 40.8804 43.9781 40.6831 43.9966 40.4799C43.4625 40.3966 42.9177 40.5416 42.458 40.81C41.7308 41.2238 41.172 41.8636 40.6783 42.5207C40.3579 41.9231 40.2817 41.2189 40.4036 40.5583C40.5586 39.7056 40.9251 38.9089 41.3087 38.1355C41.5224 37.7173 41.7433 37.3026 41.9745 36.8937C42.38 36.1383 42.7116 35.3425 42.9396 34.518ZM46.2987 49.9757H49.3804C49.0683 49.25 48.7512 48.5267 48.3943 47.8212C48.1049 47.2712 47.7984 46.7257 47.4095 46.2369C47.1433 45.9003 46.8355 45.5865 46.4582 45.3701C46.7871 45.843 47.1048 46.3357 47.2737 46.8891C47.4744 47.4916 47.4319 48.164 47.1559 48.7369C46.9395 49.1938 46.6357 49.5983 46.2987 49.9757ZM60.5443 50.1482C61.4353 49.8089 62.3859 49.6308 63.3962 49.6139C62.9497 49.0492 62.585 48.3834 62.601 47.652C62.6068 46.8032 63.0683 46.0488 63.5396 45.3692C62.8183 45.8024 62.3469 46.5225 61.9302 47.2254C61.397 48.1664 60.9683 49.1562 60.5443 50.1482ZM54.0291 38.3646C53.3297 38.4387 52.6316 38.5991 52.0034 38.9173C51.2843 39.2707 50.6857 39.8383 50.26 40.505C49.8675 41.1167 49.6032 41.8002 49.4231 42.4991C49.758 42.2483 50.087 41.9896 50.4161 41.7309C50.7693 41.4532 51.1225 41.1754 51.4832 40.9074C51.7097 41.2282 51.9351 41.5497 52.1605 41.8713C52.5109 42.3711 52.8612 42.8709 53.2154 43.3681C53.3535 43.3483 53.4915 43.3281 53.6295 43.308C54.0794 43.2425 54.5296 43.1769 54.9808 43.1196C55.3284 43.1567 55.6748 43.2077 56.0212 43.2587L56.0214 43.2587C56.271 43.2954 56.5207 43.3321 56.7708 43.3637C56.8071 43.3311 56.8385 43.2945 56.8653 43.254C57.2127 42.754 57.563 42.2561 57.9133 41.7583L57.9142 41.7571C58.1134 41.4738 58.3127 41.1906 58.5115 40.9069C58.8825 41.1827 59.2457 41.4682 59.6088 41.7538L59.6088 41.7538C59.9282 42.005 60.2476 42.2561 60.5721 42.5004C60.2796 41.3621 59.7495 40.2344 58.8238 39.4619C58.2575 38.9847 57.5612 38.6736 56.838 38.5083C56.3546 38.3925 55.8582 38.352 55.3637 38.3117L55.1986 38.2981C54.8774 38.2869 54.5583 38.3163 54.2392 38.3457C54.1969 38.3496 54.1547 38.3535 54.1124 38.3573C54.0846 38.3598 54.0569 38.3623 54.0291 38.3646ZM99.9228 67.874C98.3232 67.874 96.8959 67.4746 95.6409 66.6759C94.3858 65.853 93.3892 64.7638 92.6509 63.4085C91.9373 62.0289 91.5804 60.4799 91.5804 58.7614C91.5804 57.043 91.9373 55.494 92.6509 54.1144C93.3892 52.7348 94.3858 51.6457 95.6409 50.847C96.8959 50.0241 98.3232 49.6126 99.9228 49.6126C101.055 49.6126 102.064 49.8062 102.95 50.1935C103.836 50.5807 104.586 51.1132 105.201 51.7909V41.2625H110V67.5109H105.201V65.732C104.586 66.3855 103.836 66.9058 102.95 67.2931C102.064 67.6803 101.055 67.874 99.9228 67.874ZM100.993 63.4085C102.322 63.4085 103.393 62.9728 104.205 62.1015C105.017 61.206 105.423 60.0563 105.423 58.6525C105.423 57.2729 105.017 56.1475 104.205 55.2762C103.393 54.3806 102.322 53.9329 100.993 53.9329C99.6644 53.9329 98.5816 54.3806 97.7449 55.2762C96.9328 56.1475 96.5268 57.285 96.5268 58.6888C96.5268 60.0684 96.9328 61.206 97.7449 62.1015C98.5816 62.9728 99.6644 63.4085 100.993 63.4085ZM32.437 47.1439C31.6495 47.1439 30.9974 46.8897 30.4806 46.3815C29.9638 45.849 29.7054 45.1955 29.7054 44.421C29.7054 43.6707 29.9638 43.0293 30.4806 42.4968C30.9974 41.9644 31.6495 41.6981 32.437 41.6981C33.2244 41.6981 33.8766 41.9644 34.3933 42.4968C34.9101 43.0293 35.1685 43.6707 35.1685 44.421C35.1685 45.1955 34.9101 45.849 34.3933 46.3815C33.8766 46.8897 33.2244 47.1439 32.437 47.1439ZM30.0007 67.5109V49.9757H34.8732V67.5109H30.0007ZM6.68124 67.5109L0 49.9757H4.87251L8.48998 60.6493L12.2182 49.9757H15.7249L19.4531 60.6493L23.0706 49.9757H27.9431L21.2988 67.5109H17.792L13.99 57.2366L10.1511 67.5109H6.68124ZM64.4777 63.4811C65.8312 63.4811 66.9262 63.0454 67.7629 62.1741C68.5996 61.2786 69.018 60.1289 69.018 58.7251C69.018 57.3455 68.5996 56.2201 67.7629 55.3488C66.9262 54.4533 65.8312 54.0055 64.4777 54.0055C63.1488 54.0055 62.066 54.4533 61.2293 55.3488C60.3927 56.2201 59.9743 57.3455 59.9743 58.7251C59.9743 60.1289 60.3927 61.2786 61.2293 62.1741C62.066 63.0454 63.1488 63.4811 64.4777 63.4811ZM77.8361 49.9757V67.5109H82.6717V57.8175C82.6717 56.5105 82.9916 55.5424 83.6315 54.9131C84.2713 54.2596 85.1203 53.9329 86.1785 53.9329C87.1136 53.9329 87.8765 54.2233 88.4671 54.8042L91.4939 51.3915C90.4111 50.2056 89.0085 49.6126 87.2859 49.6126C86.2769 49.6126 85.391 49.782 84.6281 50.1209C83.8652 50.4597 83.2131 50.9317 82.6717 51.5368V49.9757H77.8361ZM61.5503 79.0809C61.9775 79.3528 62.4634 79.4888 63.008 79.4888C63.3933 79.4888 63.7368 79.4229 64.0384 79.291C64.34 79.1592 64.5955 78.9821 64.8049 78.7596V79.3652H66.4385V70.4296H64.8049V74.0137C64.5955 73.783 64.34 73.6017 64.0384 73.4699C63.7368 73.3381 63.3933 73.2722 63.008 73.2722C62.4634 73.2722 61.9775 73.4122 61.5503 73.6924C61.123 73.9643 60.7838 74.335 60.5324 74.8047C60.2895 75.2743 60.168 75.8017 60.168 76.3867C60.168 76.9717 60.2895 77.499 60.5324 77.9686C60.7838 78.43 61.123 78.8008 61.5503 79.0809ZM64.4656 77.5237C64.1892 77.8203 63.8248 77.9686 63.3724 77.9686C62.92 77.9686 62.5514 77.8203 62.2666 77.5237C61.9901 77.2188 61.8519 76.8316 61.8519 76.3619C61.8519 75.8841 61.9901 75.4968 62.2666 75.2002C62.5514 74.8953 62.92 74.7429 63.3724 74.7429C63.8248 74.7429 64.1892 74.8953 64.4656 75.2002C64.7421 75.4968 64.8803 75.8799 64.8803 76.3496C64.8803 76.8275 64.7421 77.2188 64.4656 77.5237ZM50.0858 79.4888C49.4742 79.4888 48.9213 79.3528 48.4271 79.0809C47.9412 78.8008 47.5516 78.4259 47.2584 77.9563C46.9736 77.4866 46.8312 76.9552 46.8312 76.3619C46.8312 75.7852 46.9736 75.262 47.2584 74.7923C47.5432 74.3227 47.9286 73.9519 48.4145 73.68C48.9088 73.3999 49.4617 73.2598 50.0732 73.2598C50.6848 73.2598 51.2377 73.3999 51.7319 73.68C52.2262 73.9519 52.6158 74.3227 52.9006 74.7923C53.1854 75.2537 53.3278 75.7769 53.3278 76.3619C53.3278 76.9552 53.1854 77.4907 52.9006 77.9686C52.6158 78.4383 52.2262 78.809 51.7319 79.0809C51.2461 79.3528 50.6973 79.4888 50.0858 79.4888ZM50.0732 77.981C50.5424 77.981 50.9193 77.8327 51.2042 77.5361C51.4974 77.2312 51.644 76.8439 51.644 76.3743C51.644 75.9046 51.4974 75.5215 51.2042 75.2249C50.911 74.9283 50.534 74.78 50.0732 74.78C49.6208 74.78 49.248 74.9324 48.9548 75.2373C48.6616 75.5339 48.515 75.9129 48.515 76.3743C48.515 76.8439 48.6616 77.2312 48.9548 77.5361C49.248 77.8327 49.6208 77.981 50.0732 77.981ZM30.1787 79.3652V73.3958H31.8249V73.9148C32.2605 73.4864 32.826 73.2722 33.5213 73.2722C33.9067 73.2722 34.2585 73.3504 34.5769 73.507C34.9036 73.6635 35.1675 73.886 35.3685 74.1744C35.6031 73.886 35.8879 73.6635 36.223 73.507C36.5665 73.3504 36.9435 73.2722 37.354 73.2722C37.798 73.2722 38.2001 73.3669 38.5603 73.5564C38.9205 73.7377 39.2054 74.0014 39.4148 74.3474C39.6326 74.6935 39.7415 75.1054 39.7415 75.5833V79.3652H38.0954V75.8429C38.0954 75.4968 37.9823 75.229 37.7561 75.0395C37.5383 74.8418 37.266 74.7429 36.9393 74.7429C36.6126 74.7429 36.3361 74.8418 36.1099 75.0395C35.8921 75.229 35.7832 75.4968 35.7832 75.8429V79.3652H34.137V75.8429C34.137 75.4968 34.0239 75.229 33.7978 75.0395C33.5799 74.8418 33.3077 74.7429 32.981 74.7429C32.6542 74.7429 32.3778 74.8418 32.1516 75.0395C31.9338 75.229 31.8249 75.4968 31.8249 75.8429V79.3652H30.1787ZM76.9436 79.4888C76.3069 79.4888 75.7372 79.357 75.2346 79.0933C74.7403 78.8214 74.3508 78.4506 74.0659 77.981C73.7811 77.5113 73.6387 76.9758 73.6387 76.3743C73.6387 75.7893 73.7769 75.262 74.0534 74.7923C74.3382 74.3227 74.7236 73.9519 75.2095 73.68C75.6954 73.3999 76.2357 73.2598 76.8305 73.2598C77.4085 73.2598 77.9196 73.3916 78.3636 73.6553C78.8159 73.9107 79.172 74.265 79.4317 74.7182C79.6914 75.1631 79.8212 75.6698 79.8212 76.2383C79.8212 76.4443 79.7919 76.6792 79.7333 76.9428L75.2974 76.9552C75.398 77.326 75.5906 77.6143 75.8755 77.8203C76.1603 78.0263 76.5122 78.1293 76.931 78.1293C77.2326 78.1293 77.5091 78.0799 77.7604 77.981C78.0201 77.8739 78.2421 77.7173 78.4264 77.5113L79.394 78.463C79.0924 78.809 78.7322 79.0686 78.3133 79.2416C77.8944 79.4064 77.4379 79.4888 76.9436 79.4888ZM76.8305 74.6069C76.4368 74.6069 76.1059 74.7099 75.8378 74.9159C75.5781 75.1137 75.398 75.3897 75.2974 75.744H78.2379C78.0704 74.986 77.6012 74.6069 76.8305 74.6069Z"/>
</symbol><symbol id="menu" viewBox="0 0 64 25">
  <rect x="31.2559" width="32.7442" height="3" rx="1.5"/>
  <rect x="16.3721" y="11" width="47.6279" height="3" rx="1.5"/>
  <rect y="22" width="64" height="3" rx="1.5"/>
</symbol><symbol id="ps" viewBox="0 0 39 38">
  <path d="M1.62498 1.62391H37.375V36.376H1.62498V1.62391ZM0 38H39V0H0V38ZM26.2925 15.5897C25.0087 15.5897 24.57 16.2393 24.57 16.7752C24.57 17.3598 24.8625 17.7658 26.585 18.6589C29.1363 19.8931 29.9325 21.0786 29.9325 22.8162C29.9325 25.4145 27.95 26.8111 25.2688 26.8111C23.855 26.8111 22.6362 26.5187 21.9375 26.1128C21.8238 26.0641 21.8075 25.9829 21.8075 25.8529V23.4658C21.8075 23.3034 21.8888 23.2546 22.0026 23.3359C23.0263 24.0017 24.1963 24.294 25.2688 24.294C26.5525 24.294 27.0888 23.7581 27.0888 23.0273C27.0888 22.4427 26.715 21.923 25.0737 21.0786C22.7662 19.9743 21.8075 18.8538 21.8075 16.9863C21.8075 14.8914 23.4488 13.1538 26.2925 13.1538C27.69 13.1538 28.665 13.365 29.2013 13.6085C29.3312 13.6897 29.3637 13.8196 29.3637 13.9333V16.158C29.3637 16.2879 29.2825 16.3692 29.12 16.3204C28.405 15.8658 27.3487 15.5897 26.2925 15.5897ZM12.3175 17.5222C12.6912 17.5547 12.9838 17.5547 13.6338 17.5547C15.5351 17.5547 17.3225 16.8889 17.3225 14.3069C17.3225 12.2445 16.0388 11.2051 13.8775 11.2051C13.2276 11.2051 12.61 11.2376 12.3175 11.2538V17.5222ZM9.42504 8.89911C9.42504 8.78545 9.65258 8.7042 9.7825 8.7042C10.8226 8.65549 12.3663 8.62302 13.975 8.62302C18.4763 8.62302 20.2312 11.0914 20.2312 14.2418C20.2312 18.3666 17.2412 20.1367 13.5688 20.1367C12.9513 20.1367 12.7401 20.1042 12.3012 20.1042V26.3401C12.3012 26.47 12.2525 26.535 12.1063 26.535H9.62002C9.49004 26.535 9.42498 26.4863 9.42498 26.3401V8.89911H9.42504Z"/>
</symbol><symbol id="xd" viewBox="0 0 39 38">
  <path fill-rule="evenodd" clip-rule="evenodd" d="M32.0304 2H6.89263C4.18598 2 2 4.18598 2 6.89263V31.0574C2 33.764 4.18598 35.95 6.89263 35.95H32.0304C34.7371 35.95 36.9231 33.764 36.9231 31.0574V6.89263C36.9231 4.18598 34.7371 2 32.0304 2ZM32.0304 0H6.89263C3.08141 0 0 3.08141 0 6.89263V31.0574C0 34.8686 3.08141 37.95 6.89263 37.95H32.0304C35.8417 37.95 38.9231 34.8686 38.9231 31.0574V6.89263C38.9231 3.08141 35.8417 0 32.0304 0ZM20.4729 10.7388L15.6075 18.7666L20.7973 27.2811C20.8297 27.3459 20.8459 27.4108 20.8297 27.4757C20.8198 27.5155 20.7915 27.5125 20.7486 27.5081C20.7216 27.5053 20.6889 27.5018 20.6513 27.5081H16.9374C16.6779 27.5081 16.4995 27.4919 16.386 27.3297C16.2157 26.9891 16.0414 26.6526 15.867 26.3161C15.6927 25.9796 15.5183 25.643 15.348 25.3025C15.0075 24.6375 14.6345 23.9564 14.2452 23.259L14.245 23.2587C13.8559 22.5614 13.4667 21.8641 13.0775 21.1507H13.0451C12.7045 21.848 12.3315 22.5454 11.9585 23.2427L11.9585 23.2428L11.9585 23.2428L11.9584 23.2429L11.9583 23.2431C11.5854 23.9404 11.2124 24.6376 10.8557 25.3187C10.7313 25.5457 10.607 25.7746 10.4826 26.0035C10.234 26.4612 9.9853 26.9189 9.73663 27.3621C9.67176 27.5243 9.54202 27.5405 9.36362 27.5405H5.79567C5.77987 27.5405 5.76504 27.5425 5.75163 27.5442L5.75161 27.5442C5.70998 27.5496 5.68214 27.5532 5.68214 27.4919C5.66593 27.427 5.68214 27.3621 5.71458 27.3135L10.7584 19.0423L5.84432 10.7225C5.79567 10.6577 5.77945 10.5928 5.81189 10.5604C5.84432 10.5117 5.90919 10.4955 5.97407 10.4955H9.65554C9.73663 10.4955 9.81772 10.5117 9.88259 10.5279C9.94746 10.5604 9.99612 10.609 10.0448 10.6739C10.3529 11.3713 10.7097 12.0686 11.0827 12.766C11.1534 12.8926 11.2235 13.0187 11.2934 13.1444C11.6085 13.7107 11.9186 14.2682 12.2504 14.8257C12.6396 15.5068 12.9964 16.188 13.337 16.8854H13.3695C13.71 16.1718 14.0668 15.4744 14.4236 14.7932C14.7804 14.1121 15.1534 13.431 15.5264 12.7498L15.5264 12.7498L15.5264 12.7498C15.7472 12.3466 15.9623 11.9377 16.1751 11.5333L16.1751 11.5333C16.3218 11.2544 16.4674 10.9777 16.613 10.7063C16.6293 10.6414 16.6617 10.5766 16.7103 10.5441C16.7752 10.5117 16.8401 10.4955 16.9212 10.5117H20.3432C20.4243 10.4955 20.5053 10.5441 20.5216 10.6252C20.5378 10.6414 20.5053 10.7063 20.4729 10.7388ZM24.4782 27.1189C25.5648 27.6217 26.765 27.8649 27.9651 27.8487C28.8084 27.8487 29.6355 27.7676 30.4626 27.6217C31.3709 27.4595 32.2628 27.2 33.1062 26.8432C33.2197 26.7945 33.2684 26.6972 33.2684 26.5837C33.2659 26.5412 33.2634 26.4976 33.2608 26.4529C33.2467 26.2076 33.2309 25.9312 33.2035 25.6431C33.202 25.6104 33.2005 25.5779 33.199 25.5458C33.1844 25.2271 33.171 24.9352 33.171 24.67V9.23051V9.19808C33.1548 9.13321 33.09 9.06833 33.0089 9.08455H29.7166C29.6031 9.08455 29.5544 9.14942 29.5544 9.26295V14.3878C29.4644 14.3803 29.3813 14.3763 29.3035 14.3725C29.2132 14.3681 29.1301 14.3641 29.0517 14.3554C28.9057 14.3392 28.7922 14.3392 28.7111 14.3392C27.1055 14.3392 25.7432 14.6473 24.608 15.2798C23.5376 15.8637 22.6456 16.7394 22.0293 17.7936C21.4293 18.8315 21.1211 20.0154 21.1373 21.2156C21.1373 22.6914 21.4293 23.924 22.0293 24.9133C22.6132 25.8701 23.4565 26.6486 24.4782 27.1189ZM29.5544 17.4692V24.6051C29.3598 24.67 29.1814 24.7024 28.9706 24.6862C28.7598 24.7024 28.5327 24.7187 28.2894 24.7187C27.8353 24.7187 27.3812 24.6538 26.9434 24.5078C26.5217 24.3781 26.1487 24.151 25.8405 23.8591C25.5162 23.5347 25.2729 23.1455 25.1107 22.7076C24.9161 22.1724 24.8188 21.6048 24.835 21.0372C24.835 20.1938 25.0134 19.4965 25.3702 18.9775C25.727 18.4585 26.1973 18.0531 26.7487 17.7774C27.3164 17.4854 27.9489 17.3557 28.5814 17.3557C28.7598 17.3557 28.9382 17.3719 29.1166 17.3881C29.2625 17.4044 29.4085 17.4368 29.5544 17.4692Z"/>
</symbol></svg>