<svg width="19" height="19" fill="none" xmlns="http://www.w3.org/2000/svg"><path d="M12.11 1.667a3.836 3.836 0 012.707 1.127c.602.618.977 1.49 1.028 2.392.055.968-.253 1.851-.867 2.488l-5.53 5.7a2.1 2.1 0 01-3.03.004 2.23 2.23 0 01-.631-1.56c-.001-.59.22-1.146.624-1.563l3.872-3.928a.776.776 0 011.122.009.836.836 0 01-.008 1.157L7.53 11.415a.572.572 0 00-.157.4c0 .152.059.296.163.404a.542.542 0 00.786-.001l5.531-5.7c.61-.631.535-1.854-.157-2.564-.34-.35-.854-.588-1.374-.64-.293-.028-.844-.02-1.217.366l-6.22 6.361c-.53.55-.798 1.342-.748 2.227.05.88.41 1.724.987 2.318 1.217 1.248 3.323 1.355 4.417.222l4.478-4.634a.777.777 0 011.122-.002c.31.319.312.836.003 1.157l-4.478 4.633c-1.71 1.772-4.823 1.67-6.662-.217-.851-.874-1.38-2.107-1.452-3.382-.076-1.357.354-2.593 1.212-3.48l6.22-6.361c.538-.557 1.283-.855 2.124-.855z" fill="#181618"/></svg>